<svg preserveAspectRatio="none" id="visual" viewBox="0 0 960 540" width="960" height="540" xmlns="http://www.w3.org/2000/svg" xmlns:xlink="http://www.w3.org/1999/xlink" version="1.1"><path d="M0 366L26.7 390.5C53.3 415 106.7 464 160 469.7C213.3 475.3 266.7 437.7 320 423.8C373.3 410 426.7 420 480 412.5C533.3 405 586.7 380 640 380.2C693.3 380.3 746.7 405.7 800 429.3C853.3 453 906.7 475 933.3 486L960 497L960 541L933.3 541C906.7 541 853.3 541 800 541C746.7 541 693.3 541 640 541C586.7 541 533.3 541 480 541C426.7 541 373.3 541 320 541C266.7 541 213.3 541 160 541C106.7 541 53.3 541 26.7 541L0 541Z" fill="#FCAF3C" stroke-linecap="round" stroke-linejoin="miter"></path></svg>